<?xml version="1.0" encoding="UTF-8"?>
<svg version="1.1" xmlns="http://www.w3.org/2000/svg" width="2200" height="1296">
<path d="M0 0 C17.78923521 0.55151311 35.57915236 0.99929909 53.37389374 1.33101749 C64.61748478 1.57802115 75.76181396 2.11792209 87.01402855 2.65374184 C86.68402855 46.54374184 86.35402855 90.43374184 86.01402855 135.65374184 C67.93750511 135.71432777 49.86098167 135.77491371 31.2366848 135.83733559 C19.71129228 135.87788166 8.18590109 135.91864097 -3.33948708 135.96038246 C-9.40499791 135.98233886 -15.47050893 136.00424212 -21.53602028 136.02605629 C-22.29593287 136.02879148 -23.05584546 136.03152666 -23.83878571 136.03434473 C-36.00808194 136.07806918 -48.17738634 136.11881077 -60.34669667 136.15839445 C-72.89343456 136.19927432 -85.44015771 136.24348968 -97.98687369 136.29062039 C-105.00980602 136.31691057 -112.03273674 136.34178219 -119.05568695 136.36281586 C-156.54273666 136.46837851 -156.54273666 136.46837851 -194.02332497 137.11882973 C-195.21811024 137.14829479 -195.21811024 137.14829479 -196.43703258 137.1783551 C-248.85156486 138.51166883 -294.26928339 140.95370003 -334.98597145 177.65374184 C-335.7955027 178.37948402 -336.60503395 179.10522621 -337.43909645 179.85296059 C-369.30520469 209.99205946 -377.7010275 257.84461521 -379.05420876 299.76781654 C-379.19537777 305.50029789 -379.23201203 311.23219455 -379.23597145 316.96624184 C-379.23664619 317.84880653 -379.23732094 318.73137123 -379.23801613 319.64068031 C-379.17570868 371.11478889 -362.78813725 419.02549958 -326.98597145 456.65374184 C-326.48082008 457.18612465 -325.97566872 457.71850746 -325.45520973 458.26702309 C-286.53023784 499.02037623 -236.48595188 513.69586177 -181.1707859 515.15642738 C-178.95082637 515.21551376 -176.73111981 515.28090957 -174.51136208 515.34710121 C-157.47708606 515.83360343 -140.45738376 515.72593024 -123.42347145 515.27874184 C-122.60846169 515.25762337 -121.79345192 515.2365049 -120.95374489 515.21474648 C-110.44603631 514.93345446 -99.96855005 514.51999271 -89.48597145 513.71624184 C-88.5107151 513.64163734 -87.53545876 513.56703285 -86.53064919 513.49016762 C-81.20041214 513.03980288 -75.92265236 512.38361293 -70.62854958 511.61638832 C-69.38077736 511.43615623 -68.13300514 511.25592415 -66.84742165 511.07023048 C-65.90314308 510.93278923 -64.95886452 510.79534798 -63.98597145 510.65374184 C-64.09315398 494.27714925 -64.20590517 477.90060599 -64.32531071 461.5240984 C-64.38062079 453.92043726 -64.43409917 446.31677143 -64.4832859 438.71306801 C-64.52615486 432.08673618 -64.57243971 425.46043858 -64.62285 418.83415967 C-64.64942908 415.32465685 -64.67428162 411.81516073 -64.69504547 408.30561829 C-64.71827217 404.39060755 -64.74912418 400.47567741 -64.78064919 396.56072426 C-64.78640465 395.39331703 -64.79216011 394.22590981 -64.79808998 393.0231266 C-64.81277321 391.4266655 -64.81277321 391.4266655 -64.82775307 389.79795265 C-64.83743189 388.40834973 -64.83743189 388.40834973 -64.84730625 386.99067402 C-64.89380581 384.49777225 -64.89380581 384.49777225 -65.98597145 381.65374184 C-69.0378938 380.12778066 -72.20608283 380.55438499 -75.5523777 380.59124184 C-77.27373071 380.59993687 -78.99508499 380.60838433 -80.7164402 380.61663246 C-81.65922829 380.62283607 -82.60201637 380.62903969 -83.57337379 380.63543129 C-124.04381911 380.88451084 -164.52138527 380.14126697 -204.98597145 379.65374184 C-204.98597145 344.01374184 -204.98597145 308.37374184 -204.98597145 271.65374184 C-155.57216478 270.95777273 -106.19271311 270.58043895 -56.77622414 270.6660099 C-32.01300776 270.70785918 -7.25509628 270.70576863 17.50621605 270.36467934 C18.99730668 270.34447102 18.99730668 270.34447102 20.51852036 270.32385445 C29.83778747 270.19629302 39.15665877 270.05593774 48.47515678 269.88063049 C51.78149254 269.82005238 55.08792574 269.76735923 58.39441872 269.71616936 C60.61196919 269.67862932 62.82904309 269.62938254 65.04634666 269.57961464 C81.18259796 269.28966764 81.18259796 269.28966764 87.95152855 273.46624184 C93.32719562 281.77409094 92.363942 293.91134369 92.73293114 303.56420326 C93.30428723 318.22720894 94.12532847 332.87435591 95.07652855 347.51702309 C95.1256023 348.27378145 95.17467606 349.03053982 95.22523689 349.81023026 C95.43104332 352.98275757 95.63714269 356.15526578 95.84343338 359.32776165 C105.83599334 513.11653587 105.83599334 513.11653587 106.26402855 582.27874184 C106.27345482 583.33537025 106.28288109 584.39199867 106.292593 585.48064613 C106.22174782 601.35664983 106.22174782 601.35664983 102.49425316 605.23504066 C100.39650127 606.63739331 98.33319664 607.65859931 96.01402855 608.65374184 C95.17952171 609.01290688 94.34501488 609.37207191 93.48521996 609.74212074 C90.62216418 610.89448388 87.738146 611.94285956 84.82652855 612.96624184 C83.19880516 613.54317787 83.19880516 613.54317787 81.53819847 614.13176918 C14.83564594 637.26949895 -57.61622335 646.47468993 -127.98597145 647.65374184 C-129.15805153 647.6756559 -130.33013161 647.69756996 -131.53772926 647.72014809 C-180.59766841 648.51592974 -229.78011193 644.86737675 -277.98597145 635.65374184 C-279.14129372 635.43524574 -280.29661598 635.21674965 -281.48694801 634.99163246 C-351.73283551 621.30052995 -415.98660878 582.45941465 -462.98597145 528.65374184 C-463.85222145 527.6753434 -464.71847145 526.69694496 -465.61097145 525.68889809 C-522.58398782 460.50252343 -552.14728417 371.76006402 -546.52356911 285.56609535 C-541.75022146 225.13302912 -522.08661061 162.53979105 -483.98597145 114.65374184 C-483.24733864 113.72303871 -482.50870583 112.79233559 -481.7476902 111.83342934 C-468.7922772 95.7678222 -454.45545111 80.17054638 -437.98597145 67.65374184 C-436.8227632 66.73894641 -435.66003546 65.82353978 -434.4976902 64.90764809 C-355.00262674 3.0226378 -255.79503092 -0.27364081 0 0 Z " fill="#FEFEFE" transform="translate(1252.9859714508057,2.3462581634521484)"/>
<path d="M0 0 C1.92585938 0.41765625 1.92585938 0.41765625 3.890625 0.84375 C13.44192573 3.12348433 22.18563202 6.75729005 31 11 C32.48306641 11.70962891 32.48306641 11.70962891 33.99609375 12.43359375 C57.67108717 24.56316222 76.35331779 45.88476492 85 71 C90 87.11355082 90 87.11355082 90 93 C80.75114329 93.27871708 71.50374233 93.49158119 62.25159454 93.62174606 C57.95462699 93.68424016 53.66054226 93.76889495 49.36523438 93.90527344 C45.21524566 94.03620492 41.06801772 94.1075118 36.91612244 94.13852692 C35.3369549 94.16060869 33.75792979 94.20373974 32.1799469 94.26876068 C27.20507889 94.46549333 22.7935024 94.44802672 18 93 C14.32997613 89.42833719 12.29785167 85.52506397 10 81 C1.25827397 69.90473235 -13.09356897 62.68775901 -27 61 C-47.04214838 59.41306425 -65.40648606 61.53186461 -81.8203125 74.171875 C-96.91466171 87.23862507 -104.92457189 105.30301248 -107 125 C-108.07160804 150.91400393 -107.16544297 177.20215296 -89.45703125 197.984375 C-75.17954619 213.29501499 -56.3571093 218.66581313 -36 220 C-34.72769531 220.08894531 -34.72769531 220.08894531 -33.4296875 220.1796875 C-31.25498262 220.25191017 -29.16932844 220.17145895 -27 220 C-25.47246094 219.88011719 -25.47246094 219.88011719 -23.9140625 219.7578125 C-6.97051366 217.89211836 10.44022684 210.99287028 21.3828125 197.35546875 C27.13078104 188.98342761 31.21202672 180.46993321 35 171 C7.28 171 -20.44 171 -49 171 C-49 154.83 -49 138.66 -49 122 C-1.81 122 45.38 122 94 122 C94 203.64280798 94 203.64280798 68 234 C67.5472168 234.53254395 67.09443359 235.06508789 66.62792969 235.61376953 C43.15432951 262.95450572 10.36632752 277.78757887 -25.1875 280.6875 C-27.45735474 280.81116972 -29.72833992 280.91576695 -32 281 C-33.62228516 281.061875 -33.62228516 281.061875 -35.27734375 281.125 C-74.06784911 281.84921014 -110.0412867 269.79049032 -138.63671875 243.29296875 C-160.61500678 221.96858019 -172.60370838 194.04659739 -177 164 C-177.0942627 163.3716626 -177.18852539 162.7433252 -177.28564453 162.09594727 C-182.4554873 122.91519789 -175.20094218 79.88666926 -151 48 C-132.03248868 23.35079403 -106.07734159 7.42747089 -76 0 C-74.94594971 -0.26901123 -74.94594971 -0.26901123 -73.87060547 -0.54345703 C-51.17425247 -6.0388231 -22.63843017 -5.35930184 0 0 Z " fill="#FECB00" transform="translate(1328,785)"/>
<path d="M0 0 C0.82161621 0.19867676 1.64323242 0.39735352 2.48974609 0.60205078 C14.42275934 3.61179435 25.30445229 7.9292242 36 14 C37.47339844 14.83144531 37.47339844 14.83144531 38.9765625 15.6796875 C63.69121942 30.56546069 78.62939053 52.50119882 87.23828125 79.671875 C87.90037156 82.56470034 88.26948361 85.26196671 88.54760742 88.20800781 C88.6335466 89.10610168 88.71948578 90.00419556 88.80802917 90.92950439 C88.90305473 91.95439972 88.90305473 91.95439972 89 93 C79.73377344 93.25532928 70.46876395 93.45053897 61.19978237 93.56993389 C56.89518607 93.62725238 52.59300234 93.70492097 48.28979492 93.82983398 C44.13337271 93.94972536 39.9792634 94.01519494 35.82124519 94.04364967 C34.23853182 94.06391314 32.65593973 94.10349127 31.07421684 94.16303062 C26.17233143 94.34013963 21.74214697 94.34907551 17 93 C13.6201973 89.73235074 11.87233201 86.26412234 10 82 C2.21648301 71.06100316 -11.51809413 64.04737831 -24.48999023 61.37280273 C-44.70700513 58.37004213 -63.66028303 61.68119233 -80.7890625 72.8125 C-96.3528472 84.37692207 -104.10526027 102.31156033 -107 121 C-107.13019531 121.82371094 -107.26039062 122.64742187 -107.39453125 123.49609375 C-110.52101856 148.21618675 -107.12669797 175.74456284 -91.71484375 196.00390625 C-78.67224895 211.19615217 -60.73770711 217.69425263 -41.1875 219.6875 C-39.4591919 219.80505496 -37.72998147 219.91037773 -36 220 C-35.31292969 220.05285156 -34.62585938 220.10570312 -33.91796875 220.16015625 C-17.75499454 220.87095626 0.66181147 215.5566304 12.9921875 204.9140625 C13.65476563 204.28242187 14.31734375 203.65078125 15 203 C15.74507812 202.30648437 16.49015625 201.61296875 17.2578125 200.8984375 C25.33945379 192.70721463 29.77385785 182.56535538 34 172 C-7.58 171.505 -7.58 171.505 -50 171 C-50 154.83 -50 138.66 -50 122 C-2.81 122 44.38 122 93 122 C93 207.45390728 93 207.45390728 59.34570312 242.58251953 C58.20462946 243.78445597 57.09128284 245.01262087 55.984375 246.24609375 C46.02695926 257.00443206 32.23352173 264.08963182 19 270 C18.36513672 270.28359375 17.73027344 270.5671875 17.07617188 270.859375 C1.64517036 277.56988233 -15.2279649 280.53298207 -32 281 C-33.06476563 281.03996094 -34.12953125 281.07992188 -35.2265625 281.12109375 C-74.30716963 281.89904495 -110.43202776 269.98603241 -139 243 C-139.75023437 242.31421875 -140.50046875 241.6284375 -141.2734375 240.921875 C-167.31561426 216.25033912 -178.08569677 178.95646336 -179.18359375 144.03515625 C-179.96897044 103.6157447 -168.78639273 65.04720674 -140.6640625 35.26147461 C-105.54476513 -0.68818975 -47.97954452 -11.62159588 0 0 Z " fill="#FECB00" transform="translate(179,785)"/>
<path d="M0 0 C0.77649902 0.20367188 1.55299805 0.40734375 2.35302734 0.6171875 C24.27305351 6.60924696 42.59875675 18.49673142 59 34 C59.81082031 34.74636719 60.62164063 35.49273438 61.45703125 36.26171875 C87.03501076 60.63128978 100.45198919 95.75621126 101.30078125 130.76171875 C101.32021222 133.40498967 101.32740882 136.04457312 101.3125 138.6875 C101.31034485 139.38210327 101.3081897 140.07670654 101.30596924 140.7923584 C101.10861997 180.64778428 87.3980136 215.76135792 59 244 C58.19175781 244.80824219 57.38351562 245.61648438 56.55078125 246.44921875 C32.64076047 269.09457728 -0.35983154 281.69275921 -33 283 C-34.49853516 283.061875 -34.49853516 283.061875 -36.02734375 283.125 C-72.47195358 283.8603263 -109.28285595 271.24166702 -135.92993164 245.95898438 C-137.2911051 244.64394846 -138.64574227 243.32215681 -140 242 C-140.71542969 241.34644531 -141.43085937 240.69289063 -142.16796875 240.01953125 C-166.85273036 216.91144104 -179.75735669 180.56324572 -181.10498047 147.41796875 C-182.28877713 106.30125485 -170.99508282 68.95078552 -142.69921875 38.4140625 C-106.57832474 0.34134548 -50.54135151 -13.43622391 0 0 Z M-92.1171875 80.171875 C-102.30489009 91.9848531 -107.27321688 105.86871795 -110 121 C-110.15082031 121.804375 -110.30164063 122.60875 -110.45703125 123.4375 C-110.77959116 125.63950896 -110.9174543 127.77470552 -111 130 C-111.07734375 131.91619141 -111.07734375 131.91619141 -111.15625 133.87109375 C-111.79650805 157.79442884 -107.18206464 180.77799607 -90.3359375 198.6875 C-77.73189655 211.165079 -61.66385051 217.92253777 -44 219 C-43.35417969 219.05285156 -42.70835937 219.10570312 -42.04296875 219.16015625 C-23.95006175 219.95582902 -5.69160001 213.28823708 7.88671875 201.4921875 C23.33464185 186.6975872 31.61893119 167.0092906 32.203125 145.62890625 C32.52835673 120.46591395 28.32609586 97.20801332 10.3046875 78.24609375 C-4.7285403 63.59506666 -22.24074479 59.48177652 -42.61694336 59.578125 C-61.7355864 60.01364898 -78.59031423 66.29559909 -92.1171875 80.171875 Z " fill="#FECB00" transform="translate(1020,784)"/>
<path d="M0 0 C0.77649902 0.20367188 1.55299805 0.40734375 2.35302734 0.6171875 C36.78986801 10.03084401 66.67801672 34.77935298 84.36621094 65.59130859 C96.55251185 87.89353694 101.45467073 113.48450611 101.3125 138.6875 C101.31034485 139.38210327 101.3081897 140.07670654 101.30596924 140.7923584 C101.11641089 179.07437808 88.55525897 211.4960573 63 240 C62.28328125 240.80179688 61.5665625 241.60359375 60.828125 242.4296875 C35.93568993 268.72583131 -0.58521355 281.62684473 -36.04296875 283.12890625 C-72.49655277 283.82194017 -109.26880081 271.25500251 -135.92993164 245.95898438 C-137.2911051 244.64394846 -138.64574227 243.32215681 -140 242 C-140.71542969 241.34644531 -141.43085938 240.69289063 -142.16796875 240.01953125 C-163.66214207 219.89823926 -176.20222989 188.62319364 -180 160 C-180.11214844 159.18015625 -180.22429687 158.3603125 -180.33984375 157.515625 C-184.65106183 119.48241342 -175.9700648 79.88554568 -152.2734375 49.40625 C-149.63935168 46.15391673 -146.85412798 43.05948234 -144 40 C-143.30269775 39.23913086 -143.30269775 39.23913086 -142.59130859 38.46289062 C-107.0733612 0.00846799 -50.08737856 -13.31553695 0 0 Z M-93.44140625 81.68359375 C-102.72706579 93.26317257 -107.69090964 106.42502162 -110 121 C-110.13019531 121.73863281 -110.26039063 122.47726562 -110.39453125 123.23828125 C-113.80988362 146.69036751 -110.03280108 172.91413422 -96.046875 192.39453125 C-84.65782472 206.89166205 -68.84485761 215.46505187 -50.6875 218.3125 C-31.65293197 220.5331996 -11.73836356 217.0316979 3.62890625 204.9296875 C6.175938 202.69763219 8.59953158 200.38844604 11 198 C11.69996094 197.33484375 12.39992188 196.6696875 13.12109375 195.984375 C29.66079864 179.09001757 32.43212139 154.99057049 32.21484375 132.5234375 C31.74471466 112.10056271 24.19626519 92.39550048 9.859375 77.73046875 C-6.0348341 62.55280186 -24.65794809 59.17067995 -45.875 59.65234375 C-64.41514786 60.44765452 -80.89009884 67.88719665 -93.44140625 81.68359375 Z " fill="#FECB00" transform="translate(481,784)"/>
<path d="M0 0 C22.44 0 44.88 0 68 0 C68.01458252 5.19766113 68.02916504 10.39532227 68.04418945 15.75048828 C68.0945815 32.9453778 68.16103616 50.14017773 68.23571491 67.3349781 C68.28059122 77.75765087 68.32002456 88.18029008 68.34643555 98.60302734 C68.36948192 107.69242445 68.40295362 116.78171466 68.44870156 125.87102687 C68.47254454 130.67926333 68.49133161 135.4873945 68.49761391 140.29568863 C68.50370539 144.83146255 68.52385012 149.36696741 68.55427551 153.9026413 C68.56299112 155.55767567 68.56679194 157.2127453 68.56500816 158.86780167 C68.55277146 175.47645189 70.3147827 192.70414075 82.24609375 205.4765625 C92.90893823 214.73827597 105.26090588 217.19268452 119 217 C132.11803135 216.02035705 142.09013309 211.8039366 151 202 C162.29366724 186.9740908 163.29526235 169.19956128 163.31884766 151.10229492 C163.3281676 149.44522117 163.33833927 147.78815204 163.34928894 146.13108826 C163.37637039 141.67333226 163.39167279 137.21560747 163.40471697 132.75779128 C163.42044414 128.08395964 163.44720332 123.41019085 163.4727478 118.73640442 C163.51936701 109.90411894 163.55619223 101.07182141 163.58942068 92.2394765 C163.62776182 82.17644957 163.67714022 72.11348601 163.72740483 62.05051267 C163.83047371 41.36704961 163.9183583 20.6835595 164 0 C186.44 0 208.88 0 232 0 C232.04528589 21.96748875 232.08206973 43.93493925 232.10362434 65.90246296 C232.11390207 76.10418186 232.12789475 86.30586952 232.15087891 96.50756836 C232.17092076 105.40760689 232.18374184 114.30762279 232.18817699 123.20768327 C232.19076623 127.91269276 232.1967775 132.61763753 232.21146011 137.32262611 C232.22521538 141.76721016 232.22918713 146.21170391 232.22621536 150.65630722 C232.22675762 152.27217668 232.23062673 153.88804973 232.23841095 155.50390053 C232.3076136 170.63405807 231.49348655 185.95441985 227.8125 200.6875 C227.59964355 201.55487793 227.38678711 202.42225586 227.16748047 203.31591797 C222.38981347 221.79160108 213.12667433 236.37508694 200 250 C199.03126953 251.08087891 199.03126953 251.08087891 198.04296875 252.18359375 C177.95442255 273.935244 145.68910139 281.79753142 117.24609375 283.12890625 C95.10097376 283.59090458 73.78933901 278.89195492 54 269 C52.93136719 268.46632813 51.86273437 267.93265625 50.76171875 267.3828125 C26.96712241 254.48249957 12.69945402 231.52396661 4.8125 206.375 C-0.86696865 184.41456694 -0.40556664 162.43159067 -0.30418181 139.92734885 C-0.28521159 134.99469498 -0.28364877 130.06203348 -0.28010559 125.12934875 C-0.2708441 115.82268025 -0.24631165 106.5161196 -0.21605712 97.20949823 C-0.18232764 86.5997967 -0.16598084 75.99008955 -0.15097082 65.38034761 C-0.11975563 43.58682514 -0.06481892 21.79345021 0 0 Z " fill="#FECB00" transform="translate(1457,784)"/>
<path d="M0 0 C0.7715744 0.00215515 1.5431488 0.0043103 2.33810425 0.00653076 C31.66082185 0.13789508 59.66497488 6.15806585 81.109375 27.48046875 C82.47835937 28.88232422 82.47835937 28.88232422 83.875 30.3125 C84.56078125 30.98925781 85.2465625 31.66601562 85.953125 32.36328125 C99.78403598 46.91065834 103.45781886 64.97505085 105.875 84.3125 C81.455 84.3125 57.035 84.3125 31.875 84.3125 C30.225 79.3625 28.575 74.4125 26.875 69.3125 C22.70205579 62.29436655 17.84876305 58.30375435 10.046875 55.703125 C0.89190396 54.05654747 -9.05780334 54.37537564 -17.125 59.3125 C-19.65691499 61.49748756 -19.65691499 61.49748756 -21.125 64.3125 C-21.7025 65.3025 -22.28 66.2925 -22.875 67.3125 C-25.23869762 73.28051002 -25.16574254 80.5521981 -23.46875 86.68359375 C-18.28802996 98.13923764 -6.47331837 104.37805624 4.74928284 108.7155304 C7.59521637 109.77541738 10.44952362 110.80919547 13.31143188 111.82513428 C17.18287856 113.20076457 21.03933114 114.6175505 24.8984375 116.02734375 C26.04983971 116.44617828 26.04983971 116.44617828 27.22450256 116.87347412 C90.0085794 139.75097917 90.0085794 139.75097917 102.72802734 166.078125 C112.03155676 186.86477583 113.95063835 210.41714237 106.8125 232.25 C99.04676105 252.4454494 84.82466861 267.92894738 65.14453125 277.12890625 C33.31498126 290.99138036 -6.18381779 291.04035763 -38.4765625 278.7109375 C-61.53481709 269.33766327 -80.78750361 254.25136068 -90.65625 231.1015625 C-94.83003373 220.69399612 -97.125 210.54072863 -97.125 199.3125 C-73.365 199.3125 -49.605 199.3125 -25.125 199.3125 C-23.475 204.5925 -21.825 209.8725 -20.125 215.3125 C-15.16819627 223.64894264 -8.71553046 228.5143829 0.625 231.25 C10.12518199 233.2684865 19.2479718 232.66876602 27.78125 227.8203125 C33.09753726 223.9917922 35.54157895 219.15328428 36.6484375 212.76171875 C37.39646462 204.67528766 36.10943363 198.66683827 31.93359375 191.69921875 C26.19536693 185.04635995 18.75824661 181.53786977 10.8125 178.125 C9.73685791 177.65578125 8.66121582 177.1865625 7.55297852 176.703125 C-1.0700406 173.01833654 -9.82908691 169.86746963 -18.6875 166.8125 C-28.43396401 163.45056631 -37.9893524 159.85597413 -47.375 155.5625 C-48.30771729 155.13904297 -49.24043457 154.71558594 -50.20141602 154.27929688 C-69.29087733 145.30906975 -86.31976471 131.43055326 -94.125 111.3125 C-100.91585034 91.68038438 -101.05512137 67.85381179 -92.546875 48.7734375 C-89.1035576 42.02639664 -84.97294194 36.10869464 -80.125 30.3125 C-79.403125 29.3225 -78.68125 28.3325 -77.9375 27.3125 C-59.22141211 5.60662172 -27.02456159 -0.13579269 0 0 Z " fill="#FECB00" transform="translate(2089.125,779.6875)"/>
<path d="M0 0 C26.07 0 52.14 0 79 0 C83.29 9.24 87.58 18.48 92 28 C94.31830942 32.84227531 96.64247682 37.67735195 99 42.5 C103.63538106 52.04136533 108.17724008 61.61919732 112.625 71.25 C116.9402521 80.5920055 121.30479999 89.90672452 125.75 99.1875 C126.26385254 100.26354492 126.77770508 101.33958984 127.30712891 102.44824219 C128.01361572 103.91825684 128.01361572 103.91825684 128.734375 105.41796875 C129.14913086 106.28188232 129.56388672 107.1457959 129.99121094 108.03588867 C130.84746744 109.94944603 130.84746744 109.94944603 132 111 C141.42424875 91.17027004 150.84616638 71.33942128 160.25 51.5 C160.61703033 50.72586761 160.98406067 49.95173523 161.36221313 49.15414429 C165.40424654 40.6267778 169.4310817 32.09262254 173.42578125 23.54296875 C173.77830963 22.78883698 174.13083801 22.0347052 174.49404907 21.25772095 C176.16431021 17.68372759 177.83193988 14.10854539 179.49511719 10.53125 C180.08132195 9.2747124 180.66758162 8.01820042 181.25390625 6.76171875 C181.76252197 5.66819092 182.2711377 4.57466309 182.79516602 3.44799805 C184 1 184 1 185 0 C187.40348286 -0.09496708 189.77810982 -0.12558862 192.18188477 -0.11352539 C192.93305573 -0.11367142 193.68422668 -0.11381744 194.4581604 -0.1139679 C196.95260459 -0.11326863 199.44697503 -0.10547564 201.94140625 -0.09765625 C203.66633564 -0.09579212 205.39126557 -0.09436819 207.11619568 -0.09336853 C211.66512503 -0.08954297 216.21402267 -0.07971238 220.76293945 -0.06866455 C225.40120006 -0.05845124 230.03946577 -0.05387108 234.67773438 -0.04882812 C243.78517022 -0.03809014 252.89258248 -0.02101327 262 0 C260.76477609 3.78771021 259.46608398 7.28579677 257.6015625 10.80859375 C256.89193359 12.15824219 256.89193359 12.15824219 256.16796875 13.53515625 C255.65878906 14.49292969 255.14960937 15.45070313 254.625 16.4375 C253.53373586 18.50905227 252.44259339 20.58066863 251.3515625 22.65234375 C250.7937207 23.7079248 250.23587891 24.76350586 249.66113281 25.85107422 C247.09002622 30.72499145 244.54560254 35.61272906 242 40.5 C241.00014484 42.41674223 240.00014441 44.33340868 239 46.25 C238.505 47.19875 238.01 48.1475 237.5 49.125 C224 75 210.5 100.875 197 126.75 C196.50483887 127.69907227 196.00967773 128.64814453 195.49951172 129.62597656 C194.50118384 131.53941125 193.50281156 133.45282277 192.50439453 135.36621094 C189.97844349 140.20713636 187.45330556 145.04848291 184.9296875 149.890625 C184.41792969 150.87224609 183.90617187 151.85386719 183.37890625 152.86523438 C182.43068873 154.68408798 181.48273542 156.50307937 180.53515625 158.32226562 C180.08785156 159.18013672 179.64054687 160.03800781 179.1796875 160.921875 C178.7327655 161.80350815 178.28584351 162.6851413 177.82537842 163.5934906 C176.46694614 166.12858813 175.06401913 168.52824893 173.54400635 170.96168518 C165.93145127 183.57143538 164.57623151 193.88923742 164.8046875 208.41796875 C164.8008888 210.49832886 164.79267646 212.57868506 164.78030396 214.65901184 C164.75972821 220.06660377 164.79805117 225.47213685 164.84979248 230.87945557 C164.89950571 237.40344389 164.87404151 243.92754362 164.86157227 250.45165253 C164.85096479 260.3023508 164.93423097 270.14818657 165 280 C142.56 280 120.12 280 97 280 C97.09023437 273.45542969 97.18046875 266.91085937 97.2734375 260.16796875 C97.2994418 255.96131422 97.32120301 251.75545288 97.328125 247.54882812 C97.33944536 240.90648417 97.36441202 234.26664654 97.48339844 227.62524414 C98.17751132 192.14146765 98.17751132 192.14146765 83.69366455 160.5050354 C81.10910987 156.68231799 79.0705632 152.6158598 77 148.5 C76.21116929 146.99850667 75.41982055 145.49833121 74.625 144 C70.77007781 136.67564784 66.9770926 129.31899938 63.171875 121.96875 C59.80387458 115.46704484 56.41970917 108.97464936 53 102.5 C48.34145142 93.67981469 43.75538094 84.82258594 39.16967773 75.96435547 C35.82393071 69.50538789 32.4612479 63.05622366 29.0625 56.625 C24.47230243 47.93844414 19.96401068 39.20997967 15.45922852 30.47894287 C11.17447393 22.17527417 6.86318591 13.88731358 2.43725586 5.65771484 C0 1.10347014 0 1.10347014 0 0 Z " fill="#FECB00" transform="translate(1712,784)"/>
<path d="M0 0 C72.27 0 144.54 0 219 0 C219 18.15 219 36.3 219 55 C194.25 55 169.5 55 144 55 C144 129.25 144 203.5 144 280 C121.23 280 98.46 280 75 280 C75 205.75 75 131.5 75 55 C50.25 55 25.5 55 0 55 C0 36.85 0 18.7 0 0 Z " fill="#FECB00" transform="translate(601,784)"/>
<path d="M0 0 C1.47583955 0.0001591 2.95168467 0.00585225 4.42749023 0.01586914 C5.20293686 0.01728409 5.97838348 0.01869904 6.77732849 0.02015686 C9.26361893 0.02577194 11.74982059 0.03832693 14.23608398 0.05102539 C15.91772331 0.05603845 17.59936405 0.06060169 19.28100586 0.06469727 C23.41189965 0.07574626 27.54272674 0.09302094 31.67358398 0.11352539 C37.14228032 13.24706809 42.43565297 26.44130909 47.56420898 39.71118164 C47.9889299 40.80998154 48.41365082 41.90878143 48.85124207 43.0408783 C51.006468 48.62183291 53.15519832 54.20522272 55.29785156 59.79101562 C56.10143649 61.87770274 56.90506418 63.96437338 57.70874023 66.05102539 C58.07916443 67.02181534 58.44958862 67.99260529 58.83123779 68.99281311 C59.17632385 69.8872966 59.52140991 70.78178009 59.87695312 71.70336914 C60.32682335 72.8769397 60.32682335 72.8769397 60.78578186 74.07421875 C61.70782392 76.35606464 61.70782392 76.35606464 63.67358398 79.11352539 C63.91668808 78.47555527 64.15979218 77.83758514 64.41026306 77.18028259 C66.74630967 71.05042584 69.08336765 64.92095567 71.42145443 58.79187679 C72.62231266 55.64383924 73.82272008 52.49563165 75.02246094 49.34716797 C79.9153339 36.50755016 84.82015787 23.67265095 89.80249023 10.86743164 C90.36975075 9.40200172 90.36975075 9.40200172 90.94847107 7.90696716 C91.29418655 7.02195023 91.63990204 6.13693329 91.99609375 5.22509766 C92.29749771 4.45094009 92.59890167 3.67678253 92.90943909 2.87916565 C93.67358398 1.11352539 93.67358398 1.11352539 94.67358398 0.11352539 C106.22358398 0.11352539 117.77358398 0.11352539 129.67358398 0.11352539 C129.67358398 39.05352539 129.67358398 77.99352539 129.67358398 118.11352539 C120.10358398 118.11352539 110.53358398 118.11352539 100.67358398 118.11352539 C100.34358398 95.67352539 100.01358398 73.23352539 99.67358398 50.11352539 C94.72226741 64.68008042 94.72226741 64.68008042 89.77294922 79.24731445 C86.44414241 89.03973604 83.10078631 98.827184 79.70874023 108.59790039 C79.41583603 109.44789612 79.12293182 110.29789185 78.82115173 111.17364502 C76.78978244 116.99732694 76.78978244 116.99732694 75.67358398 118.11352539 C73.74690891 118.20100746 71.81706537 118.22049873 69.88842773 118.21118164 C68.13369141 118.20634766 68.13369141 118.20634766 66.34350586 118.20141602 C65.11180664 118.19303711 63.88010742 118.1846582 62.61108398 118.17602539 C60.75773438 118.16925781 60.75773438 118.16925781 58.86694336 118.16235352 C55.80244282 118.15052147 52.73803677 118.13403712 49.67358398 118.11352539 C49.41493561 117.3604158 49.15628723 116.60730621 48.88980103 115.83137512 C46.44879732 108.72460163 44.00658658 101.61824464 41.56302834 94.51234913 C40.30689866 90.85937189 39.05123179 87.20623696 37.79663086 83.55273438 C36.58523897 80.02511603 35.3726206 76.49792148 34.15916061 72.97101402 C33.69705119 71.6272036 33.23537947 70.28324258 32.77415848 68.93912697 C32.12673064 67.05260376 31.47758398 65.1666707 30.82836914 63.28076172 C30.45974762 62.20820633 30.0911261 61.13565094 29.71133423 60.03059387 C28.76392779 57.36747771 27.72336338 54.73797388 26.67358398 52.11352539 C26.34358398 73.89352539 26.01358398 95.67352539 25.67358398 118.11352539 C15.77358398 118.11352539 5.87358398 118.11352539 -4.32641602 118.11352539 C-4.34896356 102.87589207 -4.3673955 87.63826623 -4.37822819 72.40062046 C-4.38339101 65.32599352 -4.39043345 58.25137765 -4.40185547 51.17675781 C-4.41286283 44.35573661 -4.4186922 37.53472695 -4.42129326 30.71369743 C-4.42314806 28.10485591 -4.42676971 25.49601506 -4.43214607 22.88717842 C-4.43935245 19.24719987 -4.44040713 15.60726964 -4.43994141 11.96728516 C-4.44353668 10.87684402 -4.44713196 9.78640289 -4.45083618 8.66291809 C-4.44946152 7.6770874 -4.44808685 6.69125671 -4.44667053 5.67555237 C-4.44759233 4.81367593 -4.44851412 3.95179949 -4.44946384 3.06380558 C-4.23547047 -0.32794087 -3.4970533 0.11934897 0 0 Z " fill="#FEFEFE" transform="translate(943.326416015625,1176.886474609375)"/>
<path d="M0 0 C9.9 0 19.8 0 30 0 C34.44406654 6.34866649 38.80713058 12.68069832 43 19.1875 C44.13259208 20.93764266 45.26541406 22.68763656 46.3984375 24.4375 C46.98463867 25.34371094 47.57083984 26.24992187 48.17480469 27.18359375 C51.8878538 32.91309276 55.62549076 38.62659587 59.359375 44.3425293 C64.93124431 52.87913904 70.46186161 61.44105886 76 70 C76.33 46.9 76.66 23.8 77 0 C86.57 0 96.14 0 106 0 C106 38.94 106 77.88 106 118 C96.1 118 86.2 118 76 118 C66.55161054 106.39793353 66.55161054 106.39793353 63.94140625 100.71484375 C60.00424581 92.56953596 55.01786275 85.2388792 49.91503906 77.787323 C47.56346492 74.34588244 45.24908993 70.87982997 42.93359375 67.4140625 C42.53937729 66.8282692 42.14516083 66.24247589 41.73899841 65.63893127 C38.0583155 60.15056976 34.55179311 54.58138918 31 49 C30.67 71.77 30.34 94.54 30 118 C20.1 118 10.2 118 0 118 C0 79.06 0 40.12 0 0 Z " fill="#FEFEFE" transform="translate(1667,1177)"/>
<path d="M0 0 C74.42495854 0 74.42495854 0 90.8203125 15.79296875 C91.89925781 16.88544922 91.89925781 16.88544922 93 18 C93.57492187 18.55300781 94.14984375 19.10601563 94.7421875 19.67578125 C106.66788541 32.1267042 107.58721848 48.89741286 107.30859375 65.08984375 C106.73942119 80.03239472 100.63514131 93.64103154 89.62890625 103.90234375 C63.7712456 124.53468219 32.57698717 118 0 118 C0 79.06 0 40.12 0 0 Z M30 25 C30 47.11 30 69.22 30 92 C51.84705191 92.54215805 51.84705191 92.54215805 69.5625 82.875 C74.08175917 77.54459175 77.56758393 71.06279586 78 64 C78.0928125 62.83597656 78.0928125 62.83597656 78.1875 61.6484375 C78.61587029 52.35815691 76.77717433 42.90911245 70.875 35.5 C64.29351257 28.84834746 56.08646185 26.14886299 47 25 C41.39 25 35.78 25 30 25 Z " fill="#FEFEFE" transform="translate(262,1177)"/>
<path d="M0 0 C8.63077093 7.91031475 12.71626136 16.71347473 15 28 C10.7135497 28.198996 6.42959749 28.34347584 2.13989258 28.43945312 C0.68368673 28.47948628 -0.77220151 28.53393633 -2.22729492 28.60351562 C-14.3636174 29.16896265 -14.3636174 29.16896265 -18.41967773 26.27148438 C-20.25 24.125 -20.25 24.125 -21.64453125 21.9765625 C-24.19758828 18.25366089 -27.71288811 16.96941715 -32 16 C-41.44843929 14.97511764 -50.08791407 15.06593556 -58 21 C-64.08132441 26.08980413 -67.41878181 33.23882571 -68.21142578 41.09570312 C-68.91010367 52.70527553 -68.46802781 63.82737252 -60.8828125 73.2421875 C-53.06251065 80.54329919 -43.41378984 81.44844205 -33.25390625 81.28125 C-28.159095 81.05852601 -24.25790348 79.82307386 -20 77 C-18.9275 76.29875 -17.855 75.5975 -16.75 74.875 C-13.00851937 71.24650985 -13.00851937 71.24650985 -9 62 C-20.55 62 -32.1 62 -44 62 C-44 54.74 -44 47.48 -44 40 C-24.2 40 -4.4 40 16 40 C16.2165625 47.5178125 16.2165625 47.5178125 16.4375 55.1875 C16.50122803 56.73977295 16.56495605 58.2920459 16.63061523 59.89135742 C16.81839991 73.49925629 11.95912273 82.84872467 2.44140625 92.78515625 C-12.54296797 106.37898054 -28.97365285 108.64112085 -48.30761719 108.13183594 C-63.21396983 107.40192748 -76.07548096 99.83244034 -86 89 C-91.22308779 82.2818276 -94.61701703 75.14285639 -97 67 C-97.22558594 66.2471875 -97.45117188 65.494375 -97.68359375 64.71875 C-101.86843793 47.86392929 -99.10008834 29.40409621 -91.01171875 14.26171875 C-83.22896795 1.64308396 -71.30227972 -7.28687826 -57 -11.1875 C-37.15302024 -15.62850735 -16.32625936 -12.53579247 0 0 Z " fill="#FEFEFE" transform="translate(1888,1188)"/>
<path d="M0 0 C8.63077093 7.91031475 12.71626136 16.71347473 15 28 C10.7135497 28.198996 6.42959749 28.34347584 2.13989258 28.43945312 C0.68368673 28.47948628 -0.77220151 28.53393633 -2.22729492 28.60351562 C-14.3636174 29.16896265 -14.3636174 29.16896265 -18.41967773 26.27148438 C-20.25 24.125 -20.25 24.125 -21.64453125 21.9765625 C-24.19758828 18.25366089 -27.71288811 16.96941715 -32 16 C-41.44843929 14.97511764 -50.08791407 15.06593556 -58 21 C-64.08132441 26.08980413 -67.41878181 33.23882571 -68.21142578 41.09570312 C-68.91010367 52.70527553 -68.46802781 63.82737252 -60.8828125 73.2421875 C-53.06251065 80.54329919 -43.41378984 81.44844205 -33.25390625 81.28125 C-28.159095 81.05852601 -24.25790348 79.82307386 -20 77 C-18.9275 76.29875 -17.855 75.5975 -16.75 74.875 C-13.00851937 71.24650985 -13.00851937 71.24650985 -9 62 C-20.55 62 -32.1 62 -44 62 C-44 54.74 -44 47.48 -44 40 C-24.2 40 -4.4 40 16 40 C16.2165625 47.5178125 16.2165625 47.5178125 16.4375 55.1875 C16.50122803 56.73977295 16.56495605 58.2920459 16.63061523 59.89135742 C16.81839991 73.49925629 11.95912273 82.84872467 2.44140625 92.78515625 C-12.54296797 106.37898054 -28.97365285 108.64112085 -48.30761719 108.13183594 C-63.21396983 107.40192748 -76.07548096 99.83244034 -86 89 C-91.22308779 82.2818276 -94.61701703 75.14285639 -97 67 C-97.22558594 66.2471875 -97.45117188 65.494375 -97.68359375 64.71875 C-101.86843793 47.86392929 -99.10008834 29.40409621 -91.01171875 14.26171875 C-83.22896795 1.64308396 -71.30227972 -7.28687826 -57 -11.1875 C-37.15302024 -15.62850735 -16.32625936 -12.53579247 0 0 Z " fill="#FEFEFE" transform="translate(528,1188)"/>
<path d="M0 0 C9.796875 -0.0825 19.59375 -0.165 29.6875 -0.25 C34.28691528 -0.30462402 34.28691528 -0.30462402 38.97924805 -0.36035156 C41.44839786 -0.37204957 43.91755547 -0.38223875 46.38671875 -0.390625 C48.26260681 -0.4213208 48.26260681 -0.4213208 50.1763916 -0.45263672 C62.03792289 -0.45727239 73.16709904 1.63403654 82 10 C82.62648438 10.57492187 83.25296875 11.14984375 83.8984375 11.7421875 C90.89058692 18.85234788 93.18156779 27.3142654 93.4375 37.125 C93.03228778 48.99379672 89.36763232 57.12015819 80.75 65.25 C76.65248964 68.62008718 71.95092727 70.25585168 67 72 C70.79125494 80.05413836 75.29289485 87.57934156 80 95.125 C80.70611973 96.2640809 81.41185071 97.40340288 82.1171875 98.54296875 C85.83434045 104.5482451 85.83434045 104.5482451 89.61328125 110.51464844 C93 115.80222271 93 115.80222271 93 118 C88.58984615 118.32371265 84.18610257 118.55815776 79.76757812 118.71411133 C78.26895759 118.77913545 76.77115122 118.86761159 75.27539062 118.98071289 C70.25325289 119.35067704 65.87783512 119.37268019 61 118 C57.61682344 114.70234684 55.74430302 111.12283102 53.83624268 106.82577515 C52.50530736 103.91993371 50.86748456 101.19844046 49.26171875 98.4375 C48.06744328 96.29326222 46.87602363 94.14743128 45.6875 92 C44.48373427 89.83296583 43.27933111 87.66628559 42.07421875 85.5 C41.55432373 84.5615625 41.03442871 83.623125 40.4987793 82.65625 C40.00418213 81.7796875 39.50958496 80.903125 39 80 C38.56534424 79.0821875 38.13068848 78.164375 37.68286133 77.21875 C35.84516393 74.2685637 35.84516393 74.2685637 30 74 C30 88.52 30 103.04 30 118 C20.1 118 10.2 118 0 118 C0 79.06 0 40.12 0 0 Z M30 24 C30 33.57 30 43.14 30 53 C34.00125 53.0825 38.0025 53.165 42.125 53.25 C43.37555176 53.28641602 44.62610352 53.32283203 45.91455078 53.36035156 C54.28049845 53.44693847 54.28049845 53.44693847 61 49 C64.12325879 44.58963456 63.4792814 39.16725264 63 34 C61.71860411 30.22325423 60.77583835 28.59208716 57.625 26.1875 C53.50010233 24.32147486 49.63348065 23.87333238 45.13671875 23.90234375 C43.93728638 23.90609009 43.93728638 23.90609009 42.71362305 23.90991211 C41.71500244 23.91901611 40.71638184 23.92812012 39.6875 23.9375 C36.490625 23.958125 33.29375 23.97875 30 24 Z " fill="#FEFEFE" transform="translate(1212,1177)"/>
<path d="M0 0 C9.9 0 19.8 0 30 0 C30.33 16.17 30.66 32.34 31 49 C34.96 43.72 38.92 38.44 43 33 C49.125 25.3125 49.125 25.3125 52.1015625 21.62109375 C55.75853023 17.07376583 59.30316758 12.44285047 62.84375 7.8046875 C63.5553125 6.87914062 64.266875 5.95359375 65 5 C65.53850586 4.12722412 66.07701172 3.25444824 66.63183594 2.35522461 C69.38338871 -0.3812939 70.97642279 -0.56853848 74.78948975 -0.56648254 C75.53442688 -0.54067612 76.27936401 -0.51486969 77.046875 -0.48828125 C77.81807678 -0.48120651 78.58927856 -0.47413177 79.3838501 -0.46684265 C81.84023212 -0.43891578 84.29431051 -0.37618739 86.75 -0.3125 C88.41793576 -0.28741461 90.08590736 -0.26460185 91.75390625 -0.24414062 C95.83682127 -0.18909562 99.91802049 -0.10284057 104 0 C101.21194443 4.24594179 98.26826647 8.17162216 94.9375 12 C91.02307124 16.55706669 87.24109228 21.1882627 83.5625 25.9375 C79.29678435 31.43403479 74.85155718 36.74219112 70.29614258 42.00024414 C66.06111757 46.89627124 61.99268458 51.90345557 58 57 C60.32276306 61.1030387 63.06336163 64.76372554 66 68.4375 C66.99098587 69.68742036 67.98186845 70.93742263 68.97265625 72.1875 C69.47684082 72.82171875 69.98102539 73.4559375 70.50048828 74.109375 C72.37420066 76.47180233 74.23351886 78.84529109 76.09228516 81.21948242 C79.89410582 86.0749111 83.72191791 90.90752642 87.5871582 95.71264648 C104 116.12251945 104 116.12251945 104 118 C99.18071514 118.27401898 94.36604365 118.47241001 89.54077148 118.60424805 C87.90389998 118.65923506 86.2675607 118.73406381 84.63256836 118.82983398 C71.10511809 119.60176966 71.10511809 119.60176966 66.05834961 115.76171875 C63.74848688 112.95411351 61.85646188 110.12214716 60 107 C59.03750592 105.70776965 58.05934622 104.42689607 57.05859375 103.1640625 C56.18257459 101.9860977 55.30890357 100.80638328 54.4375 99.625 C48.75047931 91.9733031 42.972329 84.393401 37.16772461 76.83056641 C36.5103833 75.97124512 35.85304199 75.11192383 35.17578125 74.2265625 C34.58708252 73.45908691 33.99838379 72.69161133 33.3918457 71.90087891 C32 70 32 70 31 68 C30.67 84.5 30.34 101 30 118 C20.1 118 10.2 118 0 118 C0 79.06 0 40.12 0 0 Z " fill="#FEFEFE" transform="translate(1318,1177)"/>
<path d="M0 0 C11.22 0 22.44 0 34 0 C39.93313099 16.00224696 45.86173628 32.00616234 51.78430176 48.01232243 C53.0184455 51.34766361 54.25276266 54.6829404 55.48748779 58.01806641 C58.17017531 65.26444061 60.85119956 72.51142336 63.52781963 79.76004124 C64.68851028 82.90324232 65.85031512 86.04601966 67.01376343 89.1882019 C68.31629915 92.70660482 69.61557329 96.22619579 70.9140625 99.74609375 C71.29964828 100.78548096 71.68523407 101.82486816 72.08250427 102.89575195 C72.6171505 104.34812256 72.6171505 104.34812256 73.16259766 105.82983398 C73.47089508 106.66401352 73.7791925 107.49819305 74.09683228 108.35765076 C75.18248094 111.53387466 76.07786011 114.77251037 77 118 C66.77 118 56.54 118 46 118 C42 108 42 108 39 97 C24.48 97.33 9.96 97.66 -5 98 C-7.31 104.6 -9.62 111.2 -12 118 C-22.23 118 -32.46 118 -43 118 C-39.62512803 106.75042677 -39.62512803 106.75042677 -38.14086914 102.76464844 C-37.80452957 101.85667511 -37.46819 100.94870178 -37.12165833 100.01321411 C-36.76311264 99.0549472 -36.40456696 98.0966803 -36.03515625 97.109375 C-35.45630928 95.55052078 -35.45630928 95.55052078 -34.86576843 93.96017456 C-33.60088427 90.55570731 -32.33168731 87.15286509 -31.0625 83.75 C-30.17903474 81.37430786 -29.29590191 78.99849208 -28.41308594 76.62255859 C-27.034922 72.9140464 -25.65655278 69.20561198 -24.27658081 65.49777222 C-20.91968871 56.4781031 -17.57198506 47.45506381 -14.23046875 38.4296875 C-13.99802523 37.80186874 -13.7655817 37.17404999 -13.52609444 36.52720642 C-12.38070562 33.43342621 -11.23546939 30.33958954 -10.09030151 27.24572754 C-7.9516127 21.46821448 -5.81170069 15.69115456 -3.671875 9.9140625 C-2.46015625 6.64242188 -1.2484375 3.37078125 0 0 Z M16 34 C14.14470448 39.37382856 12.29339246 44.74900616 10.44580078 50.12548828 C9.81636822 51.95529457 9.18583799 53.78472364 8.55419922 55.61376953 C7.64784295 58.23893016 6.74540942 60.86541054 5.84375 63.4921875 C5.55939087 64.31306854 5.27503174 65.13394958 4.98205566 65.97970581 C3.53055927 69.89902287 3.53055927 69.89902287 3 74 C12.24 74 21.48 74 31 74 C29.30943959 68.78552633 27.61880504 63.57107682 25.92797852 58.35668945 C25.35273905 56.58261523 24.77754346 54.80852677 24.20239258 53.03442383 C23.37592915 50.48515139 22.54930817 47.93593008 21.72265625 45.38671875 C21.46533218 44.59287277 21.20800812 43.79902679 20.94288635 42.98112488 C19.97095113 39.98429913 18.99627904 36.98883712 18 34 C17.34 34 16.68 34 16 34 Z " fill="#FEFEFE" transform="translate(1126,1177)"/>
<path d="M0 0 C11.22 0 22.44 0 34 0 C39.93313099 16.00224696 45.86173628 32.00616234 51.78430176 48.01232243 C53.0184455 51.34766361 54.25276266 54.6829404 55.48748779 58.01806641 C58.17017531 65.26444061 60.85119956 72.51142336 63.52781963 79.76004124 C64.68851028 82.90324232 65.85031512 86.04601966 67.01376343 89.1882019 C68.31629915 92.70660482 69.61557329 96.22619579 70.9140625 99.74609375 C71.29964828 100.78548096 71.68523407 101.82486816 72.08250427 102.89575195 C72.6171505 104.34812256 72.6171505 104.34812256 73.16259766 105.82983398 C73.47089508 106.66401352 73.7791925 107.49819305 74.09683228 108.35765076 C75.18248094 111.53387466 76.07786011 114.77251037 77 118 C66.77 118 56.54 118 46 118 C42 108 42 108 39 97 C24.48 97.33 9.96 97.66 -5 98 C-7.31 104.6 -9.62 111.2 -12 118 C-22.23 118 -32.46 118 -43 118 C-39.62512803 106.75042677 -39.62512803 106.75042677 -38.14086914 102.76464844 C-37.80452957 101.85667511 -37.46819 100.94870178 -37.12165833 100.01321411 C-36.76311264 99.0549472 -36.40456696 98.0966803 -36.03515625 97.109375 C-35.45630928 95.55052078 -35.45630928 95.55052078 -34.86576843 93.96017456 C-33.60088427 90.55570731 -32.33168731 87.15286509 -31.0625 83.75 C-30.17903474 81.37430786 -29.29590191 78.99849208 -28.41308594 76.62255859 C-27.034922 72.9140464 -25.65655278 69.20561198 -24.27658081 65.49777222 C-20.91968871 56.4781031 -17.57198506 47.45506381 -14.23046875 38.4296875 C-13.99802523 37.80186874 -13.7655817 37.17404999 -13.52609444 36.52720642 C-12.38070562 33.43342621 -11.23546939 30.33958954 -10.09030151 27.24572754 C-7.9516127 21.46821448 -5.81170069 15.69115456 -3.671875 9.9140625 C-2.46015625 6.64242188 -1.2484375 3.37078125 0 0 Z M16 34 C14.14470448 39.37382856 12.29339246 44.74900616 10.44580078 50.12548828 C9.81636822 51.95529457 9.18583799 53.78472364 8.55419922 55.61376953 C7.64784295 58.23893016 6.74540942 60.86541054 5.84375 63.4921875 C5.55939087 64.31306854 5.27503174 65.13394958 4.98205566 65.97970581 C3.53055927 69.89902287 3.53055927 69.89902287 3 74 C12.24 74 21.48 74 31 74 C29.30943959 68.78552633 27.61880504 63.57107682 25.92797852 58.35668945 C25.35273905 56.58261523 24.77754346 54.80852677 24.20239258 53.03442383 C23.37592915 50.48515139 22.54930817 47.93593008 21.72265625 45.38671875 C21.46533218 44.59287277 21.20800812 43.79902679 20.94288635 42.98112488 C19.97095113 39.98429913 18.99627904 36.98883712 18 34 C17.34 34 16.68 34 16 34 Z " fill="#FEFEFE" transform="translate(739,1177)"/>
<path d="M0 0 C24.75 0 49.5 0 75 0 C75 7.59 75 15.18 75 23 C60.15 23 45.3 23 30 23 C30 30.92 30 38.84 30 47 C43.2 47 56.4 47 70 47 C70 54.26 70 61.52 70 69 C56.8 69 43.6 69 30 69 C30 77.58 30 86.16 30 95 C44.85 95 59.7 95 75 95 C75 102.59 75 110.18 75 118 C50.25 118 25.5 118 0 118 C0 79.06 0 40.12 0 0 Z " fill="#FEFEFE" transform="translate(1433,1177)"/>
<path d="M0 0 C30.69 0 61.38 0 93 0 C93 7.59 93 15.18 93 23 C82.44 23 71.88 23 61 23 C61 54.35 61 85.7 61 118 C51.43 118 41.86 118 32 118 C32 86.65 32 55.3 32 23 C21.44 23 10.88 23 0 23 C0 15.41 0 7.82 0 0 Z " fill="#FEFEFE" transform="translate(1516,1177)"/>
<path d="M0 0 C30.69 0 61.38 0 93 0 C93 7.59 93 15.18 93 23 C82.44 23 71.88 23 61 23 C61 54.35 61 85.7 61 118 C51.43 118 41.86 118 32 118 C32 86.65 32 55.3 32 23 C21.44 23 10.88 23 0 23 C0 15.41 0 7.82 0 0 Z " fill="#FEFEFE" transform="translate(600,1177)"/>
<path d="M0 0 C9.9 0 19.8 0 30 0 C30 31.68 30 63.36 30 96 C42.54 96 55.08 96 68 96 C68 103.26 68 110.52 68 118 C45.56 118 23.12 118 0 118 C0 79.06 0 40.12 0 0 Z " fill="#FEFEFE" transform="translate(826,1177)"/>
<path d="M0 0 C9.9 0 19.8 0 30 0 C30 38.94 30 77.88 30 118 C20.1 118 10.2 118 0 118 C0 79.06 0 40.12 0 0 Z " fill="#FEFEFE" transform="translate(1619,1177)"/>
<path d="M0 0 C9.9 0 19.8 0 30 0 C30 38.94 30 77.88 30 118 C20.1 118 10.2 118 0 118 C0 79.06 0 40.12 0 0 Z " fill="#FEFEFE" transform="translate(559,1177)"/>
<path d="M0 0 C9.9 0 19.8 0 30 0 C30 38.94 30 77.88 30 118 C20.1 118 10.2 118 0 118 C0 79.06 0 40.12 0 0 Z " fill="#FEFEFE" transform="translate(384,1177)"/>
</svg>
